<?xml version="1.0" standalone="no"?>
<!DOCTYPE svg PUBLIC "-//W3C//DTD SVG 20010904//EN"
 "http://www.w3.org/TR/2001/REC-SVG-20010904/DTD/svg10.dtd">
<svg version="1.0" xmlns="http://www.w3.org/2000/svg"
 width="110.000000pt" height="154.000000pt" viewBox="0 0 110.000000 154.000000"
 preserveAspectRatio="xMidYMid meet">

<g transform="translate(0.000000,154.000000) scale(0.100000,-0.100000)"
fill="#000000" stroke="none">
<path d="M73 1463 c-16 -24 -18 -58 -21 -288 -2 -143 -1 -279 3 -302 10 -67
21 -73 141 -73 l104 0 0 -332 c0 -198 4 -348 10 -370 9 -31 16 -38 43 -43 42
-8 413 -2 422 7 19 19 25 112 25 411 l0 327 104 0 c120 0 131 6 141 73 3 23 5
159 3 302 -3 230 -5 264 -21 288 l-17 27 -460 0 -460 0 -17 -27z m727 -95 l1
-63 19 35 c11 22 16 46 13 63 l-6 27 82 0 81 0 0 -125 0 -125 -95 0 -95 0 0
63 c-1 59 -1 61 -15 37 -8 -14 -14 -42 -15 -62 0 -27 -4 -38 -15 -38 -13 0
-15 -33 -15 -235 l0 -235 -69 0 c-49 0 -72 -4 -81 -15 -10 -12 -37 -15 -121
-15 l-109 0 0 250 c0 216 -2 250 -15 250 -10 0 -15 10 -15 28 l-1 27 -15 -27
c-14 -28 -16 -28 -109 -28 l-95 0 0 125 0 125 345 0 345 0 0 -62z m-60 -813
l0 -125 -190 0 -190 0 0 110 0 110 99 0 c75 0 101 4 111 15 9 11 33 15 91 15
l79 0 0 -125z"/>
</g>
</svg>
